<?xml version="1.0" encoding="utf-8"?>
<svg id="svg" version="1.1" width="400" height="400" viewBox="0 0 400 457.9166666666667" xmlns="http://www.w3.org/2000/svg">
  <g id="svgg" transform="matrix(1, 0, 0, 1, 0.562552, 2.250205)">
    <path id="path0" d="M 1.762 -0.774 C -0.673 0.141 -0.546 0.485 6.889 13.133 C 8.025 15.066 9.704 17.94 10.619 19.521 C 11.535 21.103 12.881 23.402 13.608 24.632 C 15.21 27.337 22.668 40.164 25.557 45.182 C 26.704 47.172 27.904 49.233 28.225 49.76 C 28.546 50.287 29.608 52.108 30.587 53.806 C 32.687 57.452 35.914 63.008 38.69 67.754 C 41.034 71.76 42.212 73.784 47.431 82.766 C 49.573 86.456 52.024 90.672 52.876 92.136 C 60.103 104.561 62.198 108.156 66.341 115.241 C 68.943 119.691 72.23 125.345 73.644 127.805 C 75.058 130.264 77.603 134.672 79.3 137.6 C 80.996 140.528 85.291 147.954 88.844 154.103 C 92.397 160.252 95.38 165.379 95.472 165.496 C 95.565 165.613 97.346 168.679 99.432 172.31 C 106.781 185.101 107.114 185.613 108.467 186.19 C 110.366 187 110.519 186.816 118.959 173.566 C 128.658 158.338 129.164 157.546 130.979 154.742 C 131.851 153.395 133.478 150.856 134.594 149.099 C 135.711 147.342 139.126 142.024 142.184 137.281 C 145.243 132.537 148.268 127.841 148.907 126.846 C 151.068 123.481 156.801 114.613 157.923 112.899 C 158.925 111.368 160.23 109.345 166.85 99.057 C 169.271 95.294 169.579 94.603 169.577 92.927 C 169.574 90.759 169.724 91.059 163.789 81.382 C 161.993 78.455 160.122 75.388 159.63 74.569 C 159.138 73.748 158.08 72.024 157.276 70.736 C 156.474 69.447 154.886 66.86 153.747 64.986 C 152.61 63.111 150.019 58.847 147.99 55.51 C 145.961 52.172 142.252 46.062 139.747 41.934 C 137.243 37.804 134.872 33.923 134.479 33.309 C 134.085 32.695 132.437 30.036 130.818 27.401 C 126.023 19.598 124.437 17.498 120.587 13.853 C 112.186 5.898 101.683 1.022 89.606 -0.533 C 87.607 -0.79 2.426 -1.025 1.762 -0.774 M 284.081 -0.771 C 268.854 0.051 254.549 7.138 245.274 18.457 C 243.769 20.294 241.645 23.33 238.29 28.438 C 236.588 31.031 233.082 36.36 230.498 40.282 C 227.915 44.203 224.745 49.045 223.454 51.041 C 222.162 53.037 220.047 56.273 218.754 58.231 C 217.461 60.189 215.625 62.989 214.676 64.454 C 213.725 65.917 211.287 69.654 209.256 72.758 C 204.812 79.553 195.867 93.252 187.913 105.445 C 172.849 128.539 167.859 136.201 161.767 145.586 C 151.958 160.695 149.999 163.704 145.239 170.981 C 129.537 194.976 124.03 203.448 122.839 205.44 C 122.588 205.86 122.231 206.8 122.043 207.528 C 121.427 209.926 120.95 208.919 131.447 227.357 C 132.88 229.874 135.953 235.289 138.275 239.389 C 148.015 256.583 147.844 256.317 149.12 256.317 C 150.422 256.317 150.713 255.936 157.42 245.457 C 158.881 243.174 161.302 239.389 162.8 237.046 C 164.298 234.703 166.828 230.774 168.424 228.315 C 170.018 225.855 173.021 221.208 175.096 217.987 C 185.868 201.262 189.083 196.273 189.743 195.261 C 191.193 193.039 191.969 192.952 194.754 194.706 C 195.863 195.404 198.642 197.135 200.933 198.554 C 207.462 202.599 207.448 202.567 204.467 207.233 C 197.137 218.7 176.555 250.812 174.574 253.868 C 173.32 255.804 161.32 274.687 159.676 277.312 C 156.447 282.47 155.571 284.778 154.995 289.643 C 154.588 293.071 154.589 374.536 154.996 379.565 C 155.727 388.617 155.034 388.437 189.831 388.632 C 230.454 388.859 238.946 388.461 241.29 386.223 C 242.931 384.656 242.966 383.42 243.009 326.057 C 243.028 300.759 243.118 278.527 243.21 276.654 C 243.775 265.08 246.698 255.836 252.895 246.017 C 255.776 241.451 264.055 227.658 270.423 216.816 C 271.455 215.059 273.375 211.801 274.692 209.576 C 278.629 202.918 287.198 188.383 288.248 186.578 C 289.455 184.504 293.222 178.107 295.71 173.907 C 298.577 169.067 303.059 161.473 307.838 153.358 C 309.424 150.664 311.941 146.4 313.432 143.882 C 314.924 141.363 317.71 136.621 319.625 133.342 C 321.54 130.062 324.181 125.558 325.496 123.333 C 326.81 121.108 328.538 118.184 329.333 116.838 C 330.129 115.491 331.284 113.526 331.901 112.473 C 332.517 111.419 333.816 109.214 334.789 107.575 C 335.76 105.935 337.869 102.341 339.474 99.59 C 341.08 96.837 343.069 93.435 343.896 92.03 C 344.722 90.624 346.771 87.127 348.451 84.257 C 350.129 81.387 351.903 78.369 352.39 77.549 C 352.878 76.729 354.654 73.711 356.336 70.842 C 361.234 62.489 367.98 51.076 376.033 37.516 C 382.769 26.174 384.808 22.731 386.439 19.948 C 387.298 18.484 389.03 15.561 390.288 13.453 C 391.546 11.344 393.421 8.183 394.454 6.426 C 397.983 0.429 397.927 0.579 396.99 -0.298 L 396.44 -0.814 L 368.012 -0.866 C 352.376 -0.895 339.369 -0.86 339.107 -0.79 C 338.825 -0.713 338.265 -0.083 337.737 0.753 C 337.245 1.531 333.704 7.006 329.87 12.92 C 326.035 18.834 322.641 24.079 322.329 24.574 C 320.909 26.818 320.094 26.752 315.939 24.054 C 314.15 22.891 311.389 21.135 309.804 20.151 C 306.228 17.93 305.961 17.678 305.961 16.522 C 305.961 15.55 305.954 15.564 308.741 11.216 C 309.755 9.635 311.527 6.857 312.681 5.042 C 313.834 3.226 315.099 1.263 315.493 0.679 C 315.886 0.095 316.208 -0.504 316.208 -0.652 C 316.208 -0.901 288.391 -1.004 284.081 -0.771 M 292.473 51.862 C 299.63 56.419 299.545 56.359 299.891 57.027 C 300.417 58.042 300.248 58.586 298.668 60.972 C 295.99 65.018 278.856 91.485 276.898 94.602 C 273.636 99.794 274.74 99.901 264.574 93.407 C 258.28 89.387 258.335 89.503 260.897 85.535 C 261.692 84.306 263.515 81.478 264.951 79.253 C 266.386 77.028 268.347 74.003 269.309 72.533 C 270.271 71.062 272.159 68.139 273.503 66.038 C 274.848 63.936 276.539 61.307 277.26 60.194 C 279.603 56.583 282.812 51.596 283.504 50.493 C 285.39 47.483 285.659 47.524 292.473 51.862 M 242.899 121.717 C 255.779 129.855 255.065 129.001 252.418 133.094 C 251.725 134.168 249.641 137.392 247.788 140.261 C 245.935 143.132 242.961 147.731 241.178 150.483 C 237.79 155.713 230.316 167.295 228.837 169.606 C 227.356 171.922 226.244 172.12 223.649 170.529 C 210.17 162.266 210.877 163.204 214.246 158.059 C 215.096 156.762 216.15 155.125 216.59 154.423 C 217.029 153.72 218.135 151.996 219.046 150.59 C 222.822 144.768 232.437 129.826 235.188 125.505 C 239.103 119.357 239.137 119.339 242.899 121.717" stroke="none" fill="#496453" fill-rule="evenodd" style=""/>
  </g>
</svg>