<svg version="1.1" xmlns="http://www.w3.org/2000/svg" xmlns:xlink="http://www.w3.org/1999/xlink" width="400" height="393.62" viewBox="0, 0, 400, 393.62">
  <g>
    <path d="M21.190 0.295 C 28.189 0.355,39.527 0.355,46.387 0.295 C 53.246 0.235,47.520 0.185,33.661 0.185 C 19.803 0.186,14.191 0.235,21.190 0.295 M294.607 0.294 C 296.730 0.365,300.096 0.364,302.087 0.293 C 304.079 0.222,302.343 0.164,298.228 0.164 C 294.114 0.164,292.485 0.223,294.607 0.294 M365.059 0.295 C 370.202 0.357,378.617 0.357,383.760 0.295 C 388.903 0.233,384.695 0.182,374.409 0.182 C 364.124 0.182,359.916 0.233,365.059 0.295 M155.512 392.717 C 155.512 393.041,155.799 393.307,156.151 393.307 C 156.674 393.307,156.701 393.200,156.299 392.717 C 156.030 392.392,155.742 392.126,155.660 392.126 C 155.579 392.126,155.512 392.392,155.512 392.717 M240.945 392.913 C 239.607 393.195,239.622 393.205,241.460 393.255 C 242.634 393.287,243.261 393.157,243.110 392.913 C 242.976 392.697,242.744 392.543,242.595 392.572 C 242.445 392.600,241.703 392.754,240.945 392.913 M162.303 393.599 C 163.765 393.675,166.156 393.675,167.618 393.599 C 169.080 393.523,167.884 393.461,164.961 393.461 C 162.037 393.461,160.842 393.523,162.303 393.599 M224.705 393.599 C 226.275 393.674,228.844 393.674,230.413 393.599 C 231.983 393.525,230.699 393.464,227.559 393.464 C 224.419 393.464,223.135 393.525,224.705 393.599" stroke="none" fill="#d0e3c1" fill-rule="evenodd"/>
    <path d="M0.722 0.883 C 0.054 1.417,0.432 3.937,1.180 3.937 C 3.421 8.268,8.268 16.745,14.952 27.943 C 22.441 41.657,30.315 54.140,35.433 62.992 C 46.850 83.465,59.055 104.166,74.016 129.650 C 85.459 149.246,101.181 177.390,108.492 188.386 C 110.157 189.291,112.205 187.543,115.608 181.982 C 120.451 173.616,127.953 161.799,136.614 145.743 C 143.307 133.465,153.543 121.680,157.874 115.215 C 163.780 105.906,168.228 99.661,172.074 92.658 C 181.437 79.921,192.520 60.236,200.699 49.540 C 209.197 38.301,226.378 13.780,237.402 3.987 C 239.370 1.969,237.660 0.748,222.717 0.748 C 209.506 2.315,207.480 6.466,192.913 30.327 C 184.509 46.850,177.619 59.852,165.508 83.071 C 153.543 104.331,138.976 130.157,126.392 151.544 C 117.868 165.748,107.087 187.402,107.087 187.402 C 106.274 184.950,96.457 169.120,86.220 151.498 C 74.761 130.967,58.397 103.698,46.850 83.830 C 34.252 61.708,18.898 35.752,7.087 14.173 C 2.362 5.685,0.722 0.883,0.722 0.883 M281.173 0.772 C 278.103 0.893,271.874 2.362,267.717 3.543 C 262.598 5.922,255.136 11.024,249.433 16.884 C 243.701 23.958,234.646 37.598,224.819 53.134 C 215.401 67.506,205.315 83.231,196.063 97.383 C 188.189 109.055,178.346 124.803,172.855 133.071 C 163.780 147.244,151.575 165.890,144.972 175.959 C 139.882 183.565,130.507 197.635,125.591 206.159 C 122.802 211.024,122.583 214.961,123.105 214.961 C 128.776 224.307,138.976 242.520,146.457 256.665 C 149.945 259.843,153.459 255.541,159.843 245.172 C 167.591 229.828,176.621 216.142,185.409 202.362 C 195.276 186.220,209.197 163.386,220.078 147.404 C 232.283 130.157,246.457 126.139,255.223 130.341 C 261.811 138.189,264.355 149.219,253.040 164.225 C 244.340 174.882,233.465 192.126,218.898 215.980 C 208.080 232.283,198.996 246.307,188.189 262.205 C 176.772 277.165,165.508 298.488,157.480 306.505 C 156.286 392.704,229.721 393.980,242.717 392.834 C 244.483 290.823,245.669 272.244,248.031 257.480 C 252.953 246.307,261.811 230.315,272.047 210.630 C 280.144 195.273,290.748 173.252,299.213 154.963 C 309.163 132.677,321.260 108.974,334.646 82.677 C 344.993 62.477,358.375 37.409,369.574 14.200 C 366.689 7.782,341.314 0.373,340.637 1.562 C 337.557 5.743,333.858 11.237,327.165 22.801 C 319.220 36.420,307.087 58.465,299.213 71.499 C 288.189 90.780,279.134 108.331,271.260 124.213 C 263.941 139.178,255.231 156.299,248.270 167.939 C 240.970 180.472,229.555 200.394,218.898 215.980 L 156.693 288.836 C 155.047 289.891,155.227 391.746,156.286 392.704 Z" stroke="none" fill="#496453" fill-rule="evenodd"/>
  </g>
</svg>
